<svg xmlns="http://www.w3.org/2000/svg" xmlns:xlink="http://www.w3.org/1999/xlink" viewBox="0 0 2207.68 260.26" xmlns:v="https://vecta.io/nano"><path d="M4.104 214.161L2203.107 7.842l4.326 46.108L8.43 260.268z" fill="#212121" opacity=".4"/><path d="M2.172 208.476L2201.174 2.158l4.326 46.108L6.498 254.583z" fill="#f2b5f7"/><path d="M2.172 208.476L2201.174 2.158l4.326 46.108L6.498 254.583z" fill="none" stroke="#0c0c0c" stroke-miterlimit="10" stroke-width="4"/><g fill="#212121"><use xlink:href="#B"/><use xlink:href="#C"/><use xlink:href="#D"/><path d="M854.67 140.43c5.31-.5 8.4 1.52 8.77 5.5.23 2.45-.7 4.53-2.87 5.69 2.75.63 4.24 2.4 4.5 5.14.42 4.43-2.74 7.87-7.77 8.34l-12.28 1.15-2.32-24.7 11.97-1.12zm-5.66 10.45l6.41-.6c1.88-.18 2.87-1.24 2.73-2.76-.15-1.6-1.41-2.3-3.08-2.14l-6.51.61.46 4.89zm.93 9.92l6.65-.62c2.05-.19 3.16-1.5 3-3.25-.17-1.79-1.53-2.76-3.56-2.57l-6.63.62.55 5.82zm31.7-22.9c5.25-.49 8.49 2.85 8.9 7.21.33 3.48-1.26 6.76-4.31 8.36l5.65 8.39-6.17.58-5.2-7.77-5.12.48.77 8.18-5.39.51-2.32-24.71 13.18-1.24zm-6.7 12.31l6.7-.63c2.26-.21 3.68-1.7 3.49-3.73-.19-2-1.78-3-3.83-2.8l-6.98.65.61 6.51z"/><use xlink:href="#E"/><use xlink:href="#F"/><path d="M960.89 140.28l11.26 14.05-6.51.61-8.11-10.52-3.56 4.16.69 7.39-5.39.51-2.32-24.7 5.39-.51.98 10.49 9.08-11.44 7.32-.69-8.84 10.65z"/><use xlink:href="#G"/><path d="M1021.61 124.77l2.32 24.7-5.27.49-1.64-17.5-3.95 16.29-6.17.58-6.93-15.27 1.64 17.5-5.25.49-2.32-24.7 7.87-.74 7.52 16.62 4.28-17.73 7.89-.74zm33.78-3.17l2.32 24.71-5.27.49-1.64-17.5-3.95 16.29-6.17.58-6.93-15.27 1.64 17.5-5.25.49-2.32-24.7 7.87-.74 7.52 16.62 4.28-17.73 7.89-.74z"/><use xlink:href="#G" x="79.16" y="-7.43"/><use xlink:href="#H"/><use xlink:href="#E" x="206.68" y="-19.39"/><use xlink:href="#H" x="51.86" y="-4.87"/><use xlink:href="#D" x="335.44" y="-31.47"/><use xlink:href="#B" x="497.23" y="-46.65"/><use xlink:href="#C" x="497.23" y="-46.65"/><use xlink:href="#D" x="497.23" y="-46.65"/><path d="M1351.9 93.78c5.31-.5 8.4 1.52 8.77 5.5.23 2.45-.71 4.53-2.87 5.69 2.75.63 4.24 2.4 4.5 5.14.42 4.43-2.74 7.87-7.77 8.34l-12.28 1.15-2.32-24.7 11.97-1.12zm-5.66 10.45l6.41-.6c1.88-.18 2.87-1.24 2.73-2.76-.15-1.6-1.41-2.3-3.09-2.14l-6.51.61.46 4.89zm.93 9.92l6.65-.62c2.05-.19 3.16-1.5 3-3.25-.17-1.79-1.53-2.76-3.56-2.57l-6.63.62.54 5.82z"/><use xlink:href="#I"/><use xlink:href="#E" x="497.23" y="-46.65"/><use xlink:href="#F" x="497.23" y="-46.65"/><use xlink:href="#J"/><use xlink:href="#G" x="497.23" y="-46.65"/><use xlink:href="#K"/><use xlink:href="#L"/><use xlink:href="#G" x="576.39" y="-54.08"/><use xlink:href="#H" x="497.23" y="-46.65"/><use xlink:href="#E" x="703.91" y="-66.04"/><use xlink:href="#H" x="549.09" y="-51.51"/><use xlink:href="#D" x="832.67" y="-78.12"/><use xlink:href="#B" x="985.99" y="-92.5"/><use xlink:href="#C" x="985.99" y="-92.5"/><use xlink:href="#D" x="985.99" y="-92.5"/><path d="M1840.65 47.93c5.31-.5 8.4 1.52 8.77 5.5.23 2.45-.71 4.53-2.87 5.69 2.75.63 4.24 2.4 4.5 5.14.42 4.43-2.74 7.87-7.77 8.34L1831 73.75l-2.32-24.7 11.97-1.12zm-5.66 10.45l6.41-.6c1.88-.18 2.87-1.24 2.73-2.76-.15-1.6-1.41-2.3-3.09-2.14l-6.51.61.46 4.89zm.93 9.92l6.65-.62c2.05-.19 3.16-1.5 3-3.25-.17-1.79-1.53-2.76-3.56-2.57l-6.63.62.54 5.82z"/><use xlink:href="#I" x="488.75" y="-45.85"/><use xlink:href="#E" x="985.99" y="-92.5"/><use xlink:href="#F" x="985.99" y="-92.51"/><use xlink:href="#J" x="488.76" y="-45.86"/><use xlink:href="#G" x="985.99" y="-92.51"/><use xlink:href="#K" x="488.76" y="-45.85"/><use xlink:href="#L" x="488.76" y="-45.85"/><use xlink:href="#G" x="1065.15" y="-99.93"/><use xlink:href="#H" x="985.99" y="-92.5"/><use xlink:href="#E" x="1192.67" y="-111.9"/><use xlink:href="#H" x="1037.84" y="-97.37"/><use xlink:href="#D" x="1321.43" y="-123.97"/><path d="M309.27 204.06c.75 7.99-3.8 13.39-11.64 14.13-7.86.74-13.31-3.72-14.06-11.71s3.78-13.39 11.64-14.13c7.84-.74 13.31 3.72 14.06 11.72zm-20.24 1.9c.49 5.2 3.64 7.71 8.14 7.28 4.48-.42 7.11-3.47 6.62-8.67s-3.64-7.7-8.12-7.28c-4.5.42-7.13 3.47-6.64 8.67z"/><use xlink:href="#C" x="-477.63" y="44.81"/><use xlink:href="#D" x="-477.63" y="44.81"/><path d="M377.03 185.24c5.31-.5 8.4 1.52 8.77 5.5.23 2.45-.71 4.53-2.87 5.69 2.75.63 4.24 2.4 4.5 5.14.41 4.43-2.74 7.87-7.77 8.34l-12.29 1.15-2.32-24.7 11.97-1.12zm-5.66 10.45l6.41-.6c1.88-.18 2.87-1.24 2.73-2.76-.15-1.6-1.41-2.3-3.08-2.14l-6.51.61.46 4.89zm.93 9.92l6.65-.62c2.05-.19 3.16-1.5 3-3.25-.17-1.79-1.53-2.76-3.56-2.57l-6.63.62.55 5.82zm31.71-22.9c5.25-.49 8.49 2.85 8.9 7.21.33 3.48-1.26 6.76-4.31 8.36l5.65 8.39-6.17.58-5.2-7.77-5.12.48.77 8.18-5.39.51-2.32-24.7 13.18-1.24zm-6.7 12.31l6.7-.63c2.26-.21 3.68-1.7 3.49-3.73-.19-2-1.78-3-3.83-2.8l-6.98.65.61 6.51z"/><use xlink:href="#M"/><use xlink:href="#F" x="-477.63" y="44.81"/><path d="M483.25 185.09l11.26 14.05-6.51.61-8.11-10.52-3.56 4.16.69 7.39-5.39.51-2.32-24.71 5.39-.51.98 10.49 9.08-11.44 7.32-.69-8.84 10.65z"/><use xlink:href="#G" x="-477.63" y="44.81"/><use xlink:href="#N"/><use xlink:href="#N" x="33.78" y="-3.17"/><use xlink:href="#G" x="-398.47" y="37.38"/><use xlink:href="#H" x="-477.63" y="44.81"/><use xlink:href="#M" x="206.68" y="-19.39"/><path d="M669.68 157.78l2.32 24.71-6.05.57-12.33-15.25 1.53 16.26-5.39.51-2.32-24.7 6.05-.57 12.34 15.39-1.54-16.4 5.39-.51z"/><use xlink:href="#D" x="-142.19" y="13.34"/></g><circle cx="730.68" cy="164.14" r="3.68"/><use xlink:href="#O"/><use xlink:href="#P"/><use xlink:href="#Q"/><circle cx="1219.03" cy="118.33" r="3.68"/><use xlink:href="#O" x="488.35" y="-45.81"/><use xlink:href="#P" x="488.35" y="-45.81"/><use xlink:href="#Q" x="488.35" y="-45.82"/><circle cx="1717.71" cy="71.55" r="3.68"/><use xlink:href="#O" x="987.04" y="-92.6"/><use xlink:href="#P" x="987.03" y="-92.6"/><use xlink:href="#Q" x="987.04" y="-92.6"/><defs ><path id="B" d="M786.9 159.25c.75 7.99-3.8 13.39-11.64 14.13-7.86.74-13.31-3.72-14.06-11.71s3.78-13.39 11.64-14.13c7.84-.74 13.31 3.72 14.06 11.72zm-20.24 1.9c.49 5.2 3.64 7.71 8.14 7.28 4.48-.42 7.11-3.47 6.62-8.67s-3.64-7.71-8.12-7.29c-4.5.42-7.13 3.47-6.64 8.67z"/><path id="C" d="M812.04 144.43l1.49 15.92c.53 5.63-3.19 9.74-9.94 10.37s-11.17-2.71-11.7-8.34l-1.49-15.92 5.39-.51 1.46 15.59c.28 2.98 2.41 4.55 5.87 4.23s5.26-2.27 4.98-5.25l-1.46-15.59 5.39-.51z"/><path id="D" d="M815.53 144.1l23.48-2.2.47 5.06-9.03.85 1.84 19.64-5.41.51-1.84-19.64-9.04.85-.47-5.06z"/><path id="E" d="M900.85 141.21l.41 4.41 11.97-1.12.48 5.07-11.97 1.12.48 5.1 13.02-1.22.48 5.07-18.42 1.73-2.32-24.7 18.42-1.73.47 5.06-13.02 1.22z"/><path id="F" d="M926.02 133.74l7.06-.66 12.21 23.78-5.82.55-2.52-5.03-11.11 1.04-1.54 5.41-5.82.55 7.55-25.63zm8.52 13.75l-4.51-9.01-2.76 9.7 7.27-.68z"/><path id="G" d="M987.84 127.94l2.32 24.7-5.39.51-2.32-24.7 5.39-.51z"/><path id="H" d="M1095.45 117.84l2.32 24.7-6.05.57-12.33-15.25 1.53 16.26-5.39.51-2.32-24.7 6.05-.57 12.34 15.39-1.54-16.4 5.39-.51z"/><path id="I" d="M1378.87 91.25c5.26-.49 8.49 2.85 8.9 7.21.33 3.48-1.26 6.76-4.31 8.36l5.65 8.39-6.17.58-5.2-7.77-5.12.48.77 8.18-5.39.51-2.32-24.71 13.18-1.24zm-6.7 12.31l6.7-.63c2.26-.21 3.68-1.7 3.49-3.73-.19-2-1.78-3-3.83-2.8l-6.98.65.61 6.51z"/><path id="J" d="M1458.11 93.64l11.26 14.05-6.51.61-8.11-10.52-3.55 4.16.69 7.39-5.39.51-2.32-24.7 5.39-.51.98 10.49 9.08-11.44 7.32-.69-8.84 10.65z"/><path id="K" d="M1518.84 78.12l2.32 24.7-5.27.49-1.64-17.5-3.95 16.29-6.17.58-6.93-15.27 1.64 17.5-5.25.49-2.32-24.7 7.88-.74 7.52 16.62 4.28-17.73 7.89-.74z"/><path id="L" d="M1552.62 74.95l2.32 24.71-5.27.49-1.64-17.5-3.95 16.29-6.17.58-6.93-15.27 1.64 17.5-5.25.49-2.32-24.7 7.88-.74 7.52 16.62 4.28-17.73 7.89-.74z"/><path id="M" d="M423.22 186.02l.41 4.41 11.97-1.12.47 5.07-11.97 1.12.48 5.1 13.03-1.22.47 5.07-18.42 1.73-2.32-24.7 18.42-1.73.47 5.06-13.03 1.22z"/><path id="N" d="M543.98 169.58l2.32 24.7-5.27.49-1.64-17.5-3.95 16.29-6.17.58-6.93-15.27 1.64 17.5-5.26.49-2.32-24.7 7.87-.74 7.52 16.62 4.28-17.73 7.89-.74z"/><path id="O" d="M723.78 164.35l-4.96-.18a1.24 1.24 0 0 0-1.11 1.45c.75 4.14 3.26 7.89 7.1 10.12.63.36 1.44.11 1.74-.55l1.39-4.85c.19-.41.06-.92-.33-1.16-1.52-.94-2.53-2.45-2.87-4.12-.09-.45-.52-.75-.98-.71z"/><path id="P" d="M733.84 158.1l2.57-4.25c.29-.66-.04-1.44-.73-1.67-3.98-1.35-8.48-.98-12.29 1.3a1.24 1.24 0 0 0-.37 1.79l3.56 3.57c.27.37.77.5 1.17.28a6.36 6.36 0 0 1 5-.51c.44.14.91-.09 1.09-.51z"/><path id="Q" d="M734.41 169.65l2.42 4.33c.43.58 1.27.67 1.81.19 3.14-2.79 5.05-6.89 4.96-11.32-.02-.73-.65-1.29-1.37-1.21l-4.87 1.33c-.45.05-.81.42-.82.88-.02 1.79-.79 3.43-2.03 4.6-.34.31-.37.83-.1 1.2z"/></defs></svg>