<svg xmlns="http://www.w3.org/2000/svg" xmlns:xlink="http://www.w3.org/1999/xlink" viewBox="0 0 2180.68 480.84" xmlns:v="https://vecta.io/nano"><path d="M4.826 435.407L2171.721 7.922l8.963 45.434L13.789 480.841z" fill="#212121" opacity=".4"/><path d="M2.336 429.952L2169.232 2.467l8.963 45.434L11.3 475.387z" fill="#ff6700"/><path d="M2.336 429.952L2169.232 2.467l8.963 45.434L11.3 475.387z" fill="none" stroke="#0c0c0c" stroke-miterlimit="10" stroke-width="4"/><g fill="#212121"><path d="M778.05 301.69c1.55 7.88-2.43 13.71-10.15 15.23-7.74 1.53-13.62-2.36-15.18-10.23-1.55-7.88 2.41-13.7 10.15-15.23 7.72-1.52 13.62 2.36 15.17 10.23zm-19.95 3.94c1.01 5.13 4.4 7.3 8.83 6.42 4.41-.87 6.73-4.17 5.71-9.29-1.01-5.13-4.4-7.3-8.82-6.43-4.43.87-6.74 4.17-5.73 9.3zm43.47-21.23l3.1 15.69c1.09 5.55-2.19 10.01-8.84 11.32s-11.38-1.56-12.48-7.11l-3.1-15.69 5.31-1.05 3.03 15.36c.58 2.94 2.86 4.29 6.27 3.61s5.01-2.79 4.43-5.72l-3.03-15.36 5.31-1.05z"/><use xlink:href="#B"/><path d="M843.57 276.12c5.23-1.03 8.51.67 9.28 4.59.48 2.41-.24 4.58-2.28 5.95 2.8.35 4.46 1.96 4.99 4.66.86 4.36-1.93 8.1-6.88 9.08l-12.1 2.39-4.8-24.34 11.8-2.33zM839 287.09l6.32-1.25c1.85-.36 2.73-1.53 2.44-3.02-.31-1.58-1.64-2.15-3.29-1.82l-6.42 1.27.95 4.82zm1.93 9.78l6.55-1.29c2.02-.4 2.99-1.81 2.65-3.54-.35-1.77-1.8-2.59-3.8-2.2l-6.54 1.29 1.13 5.74zm29.21-26c5.18-1.02 8.73 1.98 9.58 6.28.68 3.43-.57 6.85-3.44 8.76l6.47 7.77-6.08 1.2-5.95-7.2-5.04.99 1.59 8.06-5.31 1.05-4.8-24.34 12.99-2.56zm-5.42 12.92l6.6-1.3c2.22-.44 3.49-2.07 3.09-4.07-.39-1.97-2.07-2.8-4.09-2.4l-6.88 1.36 1.27 6.42z"/><use xlink:href="#C"/><path d="M913.88 262.24l6.96-1.37 14.55 22.42-5.74 1.13-3.02-4.75-10.95 2.16-.99 5.54-5.74 1.13 4.92-26.26zm9.87 12.82l-5.4-8.51-1.76 9.92 7.16-1.41zm25.47-9.83l12.62 12.84-6.42 1.27-9.13-9.64-3.12 4.5 1.44 7.28-5.31 1.05-4.8-24.34 5.31-1.05 2.04 10.34 7.87-12.29 7.21-1.42-7.72 11.49zm25.57-15.01l4.8 24.34-5.31 1.05-4.8-24.34 5.31-1.05zm33.28-6.57l4.8 24.34-5.2 1.03-3.4-17.25-2.28 16.6-6.08 1.2-8.43-14.49 3.4 17.25-5.18 1.02-4.8-24.34 7.76-1.53 9.16 15.78 2.47-18.07 7.78-1.53zm33.29-6.57l4.8 24.34-5.19 1.03-3.4-17.25-2.28 16.6-6.08 1.2-8.43-14.49 3.4 17.25-5.18 1.02-4.8-24.34 7.76-1.53 9.16 15.78 2.47-18.07 7.77-1.53zm11.44-2.25l4.8 24.34-5.31 1.05-4.8-24.34 5.31-1.05zm28.03-5.53l4.8 24.34-5.96 1.18-13.81-13.92 3.16 16.03-5.31 1.05-4.8-24.34 5.96-1.18 13.83 14.06-3.19-16.16 5.31-1.05zm12.42 2.73l.86 4.35 11.8-2.33.99 4.99-11.8 2.33.99 5.02 12.84-2.53.98 4.99-18.15 3.58-4.8-24.34 18.15-3.58.98 4.99-12.83 2.53zm38.68-12.82l4.8 24.34-5.96 1.18-13.81-13.93 3.16 16.03-5.31 1.05-4.8-24.34 5.96-1.18 13.83 14.06-3.19-16.16 5.31-1.05z"/><use xlink:href="#B" x="330.54" y="-65.22"/><use xlink:href="#D"/><use xlink:href="#E"/><use xlink:href="#B" x="489.97" y="-96.68"/><use xlink:href="#F"/><use xlink:href="#G"/><use xlink:href="#C" x="489.97" y="-96.69"/><path d="M1403.84 165.55l6.96-1.37 14.55 22.42-5.74 1.13-3.02-4.75-10.95 2.16-.99 5.54-5.74 1.13 4.92-26.26zm9.87 12.82l-5.4-8.51-1.76 9.92 7.16-1.41zm25.48-9.83l12.62 12.84-6.42 1.27-9.13-9.64-3.12 4.5 1.44 7.28-5.31 1.05-4.8-24.34 5.31-1.05 2.04 10.34 7.88-12.29 7.21-1.42-7.72 11.49zm25.57-15.01l4.8 24.34-5.31 1.05-4.8-24.34 5.31-1.05zm33.28-6.56l4.8 24.34-5.2 1.03-3.4-17.25-2.28 16.6-6.08 1.2-8.43-14.49 3.4 17.25-5.18 1.02-4.8-24.34 7.76-1.53 9.16 15.78 2.46-18.07 7.78-1.53zm33.28-6.57l4.8 24.34-5.2 1.03-3.4-17.25-2.28 16.6-6.08 1.2-8.43-14.49 3.4 17.25-5.18 1.02-4.8-24.34 7.76-1.53 9.16 15.78 2.47-18.07 7.77-1.53zm11.44-2.26l4.8 24.34-5.31 1.05-4.8-24.34 5.31-1.05zm28.03-5.53l4.8 24.34-5.96 1.18-13.81-13.92 3.16 16.03-5.31 1.05-4.8-24.34 5.96-1.18 13.83 14.06-3.19-16.16 5.31-1.05z"/><use xlink:href="#H"/><path d="M1621.89 122.53l4.8 24.34-5.96 1.18-13.8-13.93 3.16 16.03-5.31 1.05-4.8-24.34 5.96-1.18 13.83 14.06-3.19-16.16 5.31-1.05zm3.61-.72l23.14-4.57.98 4.99-8.89 1.76 3.82 19.35-5.33 1.05-3.82-19.35-8.91 1.76-.98-4.99z"/><use xlink:href="#D" x="481.62" y="-95.04"/><use xlink:href="#E" x="481.61" y="-95.04"/><use xlink:href="#B" x="971.58" y="-191.72"/><use xlink:href="#F" x="481.62" y="-95.04"/><use xlink:href="#G" x="481.61" y="-95.04"/><use xlink:href="#C" x="971.58" y="-191.73"/><path d="M1885.46 70.51l6.96-1.37 14.55 22.42-5.74 1.13-3.02-4.75-10.95 2.16-.99 5.54-5.74 1.13 4.92-26.26zm9.87 12.82l-5.4-8.51-1.76 9.92 7.16-1.41zm25.47-9.83l12.62 12.84-6.42 1.27-9.13-9.64-3.12 4.5 1.44 7.28-5.31 1.05-4.8-24.34 5.31-1.05 2.04 10.34 7.88-12.29 7.21-1.42-7.72 11.49zm25.57-15.01l4.8 24.34-5.31 1.05-4.8-24.34 5.31-1.05zm33.28-6.56l4.8 24.34-5.2 1.03-3.4-17.25-2.28 16.6-6.08 1.2-8.43-14.49 3.4 17.25-5.18 1.02-4.8-24.34 7.76-1.53 9.16 15.78 2.46-18.07 7.78-1.53zm33.29-6.57l4.8 24.34-5.2 1.03-3.4-17.25-2.28 16.6-6.08 1.2-8.43-14.49 3.4 17.25-5.18 1.02-4.8-24.34 7.76-1.53 9.16 15.78 2.47-18.07 7.77-1.53zm11.43-2.26l4.8 24.34-5.31 1.05-4.8-24.34 5.31-1.05zm28.04-5.53l4.8 24.34-5.96 1.18-13.81-13.92 3.16 16.03-5.31 1.05-4.8-24.34 5.96-1.18 13.83 14.06-3.19-16.16 5.31-1.05z"/><use xlink:href="#H" x="481.62" y="-95.04"/><path d="M2103.51 27.49l4.8 24.34-5.96 1.18-13.8-13.93 3.16 16.03-5.31 1.05-4.8-24.34 5.96-1.18 13.83 14.06-3.19-16.16 5.31-1.05zm3.61-.72l23.14-4.57.98 4.99-8.89 1.76 3.82 19.35-5.33 1.05-3.82-19.35-8.91 1.76-.98-4.99zM307.4 394.57c1.55 7.88-2.43 13.71-10.15 15.23-7.74 1.53-13.62-2.36-15.18-10.23s2.41-13.7 10.15-15.23c7.72-1.52 13.62 2.36 15.18 10.23zm-19.95 3.94c1.01 5.13 4.4 7.3 8.83 6.42 4.41-.87 6.73-4.17 5.71-9.29-1.01-5.13-4.4-7.3-8.82-6.43-4.43.87-6.74 4.17-5.73 9.3zm43.46-21.23l3.1 15.69c1.09 5.55-2.19 10.01-8.84 11.32-6.66 1.31-11.39-1.56-12.48-7.11l-3.1-15.69 5.31-1.05 3.03 15.36c.58 2.94 2.86 4.29 6.27 3.61 3.41-.67 5-2.79 4.42-5.72l-3.03-15.36 5.31-1.05z"/><use xlink:href="#B" x="-470.65" y="92.88"/><path d="M372.91 368.99c5.23-1.03 8.51.67 9.28 4.59.47 2.41-.24 4.58-2.28 5.95 2.8.35 4.46 1.96 4.99 4.66.86 4.36-1.93 8.1-6.88 9.08l-12.11 2.39-4.8-24.34 11.8-2.33zm-4.57 10.97l6.31-1.25c1.85-.37 2.73-1.53 2.44-3.02-.31-1.58-1.64-2.15-3.29-1.82l-6.42 1.27.95 4.82zm1.93 9.78l6.55-1.29c2.02-.4 2.99-1.81 2.65-3.54-.35-1.77-1.8-2.59-3.8-2.2l-6.54 1.29 1.13 5.74zm29.22-25.99c5.18-1.02 8.73 1.98 9.58 6.28.68 3.43-.57 6.85-3.44 8.76l6.47 7.77-6.08 1.2-5.96-7.2-5.04 1 1.59 8.06-5.31 1.05-4.8-24.34 12.99-2.56zm-5.42 12.92l6.6-1.3c2.22-.44 3.49-2.06 3.1-4.07-.39-1.97-2.07-2.8-4.09-2.4l-6.88 1.36 1.27 6.42zm24.87-11.58l.86 4.35 11.8-2.33.98 4.99-11.8 2.33.99 5.02 12.83-2.53.98 4.99-18.15 3.58-4.8-24.34 18.15-3.58.98 4.99-12.84 2.53zm24.28-9.97l6.96-1.37 14.55 22.42-5.74 1.13-3.02-4.75-10.95 2.16-.99 5.54-5.74 1.13 4.92-26.26zm9.87 12.82l-5.4-8.51-1.76 9.93 7.16-1.41zm25.48-9.83l12.62 12.84-6.42 1.27-9.13-9.64-3.12 4.5 1.44 7.28-5.31 1.05-4.8-24.34 5.31-1.05 2.04 10.34 7.87-12.29 7.22-1.42-7.72 11.49zm25.57-15.02l4.8 24.34-5.31 1.05-4.8-24.34 5.31-1.05zm33.28-6.56l4.8 24.34-5.19 1.03-3.4-17.25-2.28 16.61-6.08 1.2-8.43-14.49 3.4 17.25-5.18 1.02-4.8-24.34 7.76-1.53 9.16 15.78 2.47-18.07 7.78-1.53zm33.28-6.57l4.8 24.34-5.2 1.03-3.4-17.25-2.28 16.61-6.08 1.2-8.43-14.49 3.4 17.25-5.18 1.02-4.8-24.34 7.76-1.53 9.16 15.78 2.46-18.07 7.78-1.53zm11.44-2.26l4.8 24.34-5.31 1.05-4.8-24.34 5.31-1.05zm28.04-5.53l4.8 24.34-5.96 1.18-13.81-13.92 3.16 16.03-5.31 1.05-4.8-24.34 5.96-1.18 13.83 14.06-3.19-16.16 5.31-1.05z"/><use xlink:href="#C" x="-266.99" y="52.68"/><path d="M661.28 312.09l4.8 24.34-5.96 1.18-13.81-13.92 3.16 16.03-5.31 1.05-4.8-24.34 5.96-1.18 13.83 14.06-3.19-16.16 5.31-1.05zm3.61-.72l23.14-4.57.98 4.99-8.89 1.75 3.82 19.35-5.33 1.05-3.82-19.35-8.91 1.76-.98-4.99z"/></g><circle cx="722.63" cy="312.18" r="3.68" transform="matrix(.984473 -.175539 .175539 .984473 -43.58 131.71)"/><use xlink:href="#I"/><use xlink:href="#J"/><use xlink:href="#K"/><circle cx="1203.85" cy="217.22" r="3.68" transform="matrix(.984473 -.175539 .175539 .984473 -19.44 214.72)"/><use xlink:href="#I" x="481.21" y="-94.96"/><path d="M1206.38 210.89l2.12-4.48c.23-.69-.19-1.43-.9-1.59-4.1-.94-8.54-.11-12.1 2.54-.58.44-.67 1.28-.19 1.82l3.91 3.19c.3.34.82.42 1.19.16 1.47-1.02 3.25-1.35 4.92-1.02.45.09.89-.18 1.04-.62z"/><use xlink:href="#K" x="481.21" y="-94.97"/><circle cx="1695.25" cy="120.25" r="3.68" transform="matrix(.984473 -.175539 .175539 .984473 5.22 299.49)"/><use xlink:href="#I" x="972.61" y="-191.93"/><use xlink:href="#J" x="972.61" y="-191.93"/><use xlink:href="#K" x="972.61" y="-191.93"/><defs ><path id="B" d="M805 283.72l23.14-4.57.98 4.99-8.9 1.76 3.82 19.35-5.33 1.05-3.82-19.35-8.91 1.76-.98-4.99z"/><path id="C" d="M889.59 272.22l.86 4.35 11.8-2.33.98 4.99-11.8 2.33.99 5.02 12.83-2.53.98 4.99-18.15 3.58-4.8-24.34 18.15-3.58.98 4.99-12.83 2.53z"/><path id="D" d="M1268.01 205c1.55 7.88-2.43 13.71-10.15 15.23-7.74 1.53-13.62-2.36-15.18-10.23-1.55-7.88 2.41-13.7 10.15-15.23 7.72-1.52 13.62 2.36 15.18 10.23zm-19.95 3.94c1.01 5.13 4.4 7.3 8.84 6.42 4.41-.87 6.72-4.17 5.71-9.29-1.01-5.13-4.4-7.3-8.82-6.43-4.43.87-6.74 4.17-5.73 9.3z"/><path id="E" d="M1291.53 187.72l3.1 15.69c1.1 5.55-2.19 10.01-8.84 11.32s-11.38-1.56-12.48-7.11l-3.1-15.69 5.31-1.05 3.03 15.36c.58 2.94 2.86 4.29 6.27 3.61s5.01-2.79 4.43-5.72l-3.03-15.36 5.31-1.05z"/><path id="F" d="M1333.53 179.43c5.23-1.03 8.51.67 9.28 4.59.48 2.41-.24 4.58-2.28 5.95 2.8.35 4.46 1.96 4.99 4.66.86 4.36-1.93 8.1-6.88 9.08l-12.11 2.39-4.8-24.34 11.8-2.33zm-4.57 10.97l6.32-1.25c1.85-.36 2.73-1.53 2.44-3.02-.31-1.58-1.64-2.15-3.29-1.82l-6.42 1.27.95 4.82zm1.93 9.78l6.55-1.29c2.02-.4 2.99-1.81 2.65-3.54-.35-1.77-1.8-2.59-3.8-2.2l-6.54 1.29 1.13 5.74z"/><path id="G" d="M1360.11 174.18c5.18-1.02 8.73 1.98 9.58 6.28.68 3.43-.57 6.85-3.44 8.76l6.47 7.77-6.08 1.2-5.96-7.2-5.04.99 1.59 8.06-5.31 1.05-4.8-24.34 12.99-2.56zm-5.42 12.92l6.61-1.3c2.22-.44 3.49-2.07 3.09-4.07-.39-1.97-2.07-2.8-4.09-2.4l-6.88 1.36 1.27 6.42z"/><path id="H" d="M1583.21 135.34l.86 4.35 11.8-2.33.99 4.99-11.8 2.33.99 5.02 12.84-2.53.98 4.99-18.15 3.58-4.8-24.34 18.15-3.58.98 4.99-12.84 2.53z"/><path id="I" d="M715.8 313.08l-4.95.32c-.71.14-1.16.86-.95 1.55 1.17 4.04 4.04 7.52 8.09 9.35a1.24 1.24 0 0 0 1.68-.72l.9-4.96c.15-.43-.03-.92-.44-1.12-1.61-.79-2.76-2.19-3.28-3.81-.14-.44-.59-.69-1.04-.61z"/><path id="J" d="M725.17 305.85l2.12-4.48c.23-.69-.19-1.43-.9-1.59-4.1-.94-8.54-.11-12.1 2.54-.58.44-.67 1.28-.19 1.82l3.91 3.19c.3.34.82.42 1.19.16a6.43 6.43 0 0 1 4.92-1.02c.45.09.89-.18 1.04-.62z"/><path id="K" d="M726.91 317.28l2.84 4.07c.49.54 1.33.54 1.82 0 2.84-3.1 4.33-7.36 3.79-11.77-.09-.72-.78-1.22-1.49-1.06l-4.71 1.81c-.44.1-.77.5-.73.96.16 1.78-.43 3.49-1.55 4.78-.3.35-.29.87.02 1.21z"/></defs></svg>