<svg xmlns="http://www.w3.org/2000/svg" xmlns:xlink="http://www.w3.org/1999/xlink" viewBox="0 0 2195.06 386.17" xmlns:v="https://vecta.io/nano"><path d="M9.733 8.263l2183.538 332.178-6.965 45.783L2.768 54.046z" fill="#212121" opacity=".4"/><path d="M9.238 2.275l2183.538 332.178-6.965 45.783L2.273 48.059z" fill="#c4ed74"/><path d="M9.238 2.275l2183.538 332.178-6.965 45.783L2.273 48.059z" fill="none" stroke="#0c0c0c" stroke-miterlimit="10" stroke-width="4"/><g fill="#212121"><use xlink:href="#B"/><use xlink:href="#C"/><use xlink:href="#D"/><use xlink:href="#E"/><use xlink:href="#F"/><path d="M897.46 154.63l-.67 4.38 11.89 1.81-.76 5.03-11.89-1.81-.77 5.06 12.93 1.97-.76 5.03-18.29-2.78 3.73-24.53 18.29 2.78-.76 5.03-12.93-1.97zm26.23-1.16l7.01 1.07 6.09 26.02-5.78-.88-1.23-5.49-11.03-1.68-2.81 4.88-5.78-.88 13.53-23.04zm4.94 15.4l-2.2-9.84-5.02 8.74 7.22 1.1z"/><use xlink:href="#G"/><use xlink:href="#H"/><path d="M1018.61 167.91l-3.73 24.53-5.23-.8 2.64-17.38-7.77 14.85-6.12-.93-3.02-16.49-2.64 17.38-5.22-.79 3.73-24.53 7.82 1.19 3.27 17.95 8.44-16.17 7.83 1.19zm33.54 5.1l-3.73 24.53-5.23-.8 2.64-17.38-7.77 14.85-6.12-.93-3.02-16.49-2.64 17.38-5.22-.79 3.73-24.53 7.82 1.19 3.27 17.95 8.44-16.17 7.83 1.19z"/><use xlink:href="#H" x="78.61" y="11.96"/><use xlink:href="#I"/><path d="M1102.68,185.85l-.67,4.38,11.89,1.81-.76,5.03-11.89-1.81-.77,5.06,12.93,1.97-.76,5.03-18.29-2.78,3.73-24.53,18.29,2.78-.76,5.03-12.93-1.97Z"/><use xlink:href="#I" x="51.5" y="7.84"/><use xlink:href="#D" x="333.08" y="50.66"/><use xlink:href="#B" x="493.73" y="75.1"/><use xlink:href="#C" x="493.73" y="75.1"/><use xlink:href="#D" x="493.73" y="75.1"/><use xlink:href="#E" x="493.73" y="75.1"/><use xlink:href="#F" x="493.73" y="75.1"/><path d="M1391.19 229.73l-.67 4.38 11.89 1.81-.76 5.03-11.89-1.81-.77 5.06 12.93 1.97-.76 5.03-18.29-2.78 3.73-24.53 18.29 2.78-.76 5.03-12.93-1.97zm26.23-1.16l7.01 1.07 6.09 26.02-5.78-.88-1.23-5.49-11.03-1.68-2.81 4.88-5.78-.88 13.53-23.04zm4.94 15.4l-2.2-9.84-5.02 8.74 7.22 1.1z"/><use xlink:href="#G" x="493.73" y="75.1"/><use xlink:href="#H" x="493.74" y="75.1"/><path d="M1512.34 243.01l-3.73 24.53-5.23-.8 2.64-17.38-7.77 14.85-6.12-.93-3.02-16.49-2.64 17.38-5.22-.79 3.73-24.53 7.82 1.19 3.27 17.95 8.44-16.17 7.83 1.19zm33.54 5.1l-3.73 24.53-5.23-.8 2.64-17.38-7.77 14.85-6.12-.93-3.02-16.49-2.64 17.38-5.22-.79 3.73-24.53 7.82 1.19 3.27 17.95 8.44-16.17 7.83 1.19z"/><use xlink:href="#H" x="572.34" y="87.06"/><use xlink:href="#I" x="493.74" y="75.1"/><path d="M1596.42,260.95l-.67,4.38,11.89,1.81-.76,5.03-11.89-1.81-.77,5.06,12.93,1.97-.76,5.03-18.29-2.78,3.73-24.53,18.29,2.78-.76,5.03-12.93-1.97Z"/><use xlink:href="#I" x="545.23" y="82.94"/><use xlink:href="#D" x="826.81" y="125.76"/><use xlink:href="#B" x="979.05" y="148.92"/><use xlink:href="#C" x="979.05" y="148.92"/><use xlink:href="#D" x="979.05" y="148.92"/><use xlink:href="#E" x="979.05" y="148.92"/><use xlink:href="#F" x="979.05" y="148.92"/><path d="M1876.51 303.55l-.67 4.38 11.89 1.81-.76 5.03-11.89-1.81-.77 5.06 12.93 1.97-.76 5.03-18.29-2.78 3.73-24.53 18.29 2.78-.76 5.03-12.93-1.97zm26.23-1.16l7.01 1.07 6.09 26.02-5.78-.88-1.23-5.49-11.03-1.68-2.81 4.88-5.78-.88 13.53-23.04zm4.94 15.4l-2.2-9.84-5.02 8.74 7.22 1.1z"/><use xlink:href="#G" x="979.05" y="148.92"/><use xlink:href="#H" x="979.06" y="148.92"/><path d="M1997.66 316.83l-3.73 24.53-5.23-.8 2.64-17.38-7.77 14.85-6.12-.93-3.02-16.49-2.64 17.38-5.22-.79 3.73-24.53 7.82 1.19 3.27 17.95 8.44-16.17 7.83 1.19zm33.54 5.1l-3.73 24.53-5.23-.8 2.64-17.38-7.77 14.85-6.12-.93-3.02-16.49-2.64 17.38-5.22-.79 3.73-24.53 7.82 1.19 3.27 17.95 8.44-16.17 7.83 1.19z"/><use xlink:href="#H" x="1057.66" y="160.88"/><use xlink:href="#I" x="979.06" y="148.92"/><path d="M2081.74,334.77l-.67,4.38,11.89,1.81-.76,5.03-11.89-1.81-.77,5.06,12.93,1.97-.76,5.03-18.29-2.78,3.73-24.53,18.29,2.78-.76,5.03-12.93-1.97Z"/><use xlink:href="#I" x="1030.55" y="156.76"/><use xlink:href="#D" x="1312.13" y="199.58"/><use xlink:href="#B" x="-474.28" y="-72.14"/><path d="M336.24 64.12l-2.4 15.81c-.85 5.59-5.45 8.67-12.15 7.65-6.71-1.02-10.18-5.33-9.33-10.92l2.4-15.81 5.35.81-2.35 15.48c-.45 2.96 1.23 5 4.67 5.52s5.65-.93 6.1-3.88l2.35-15.48 5.35.81z"/><use xlink:href="#D" x="-474.28" y="-72.14"/><path d="M378.56 70.56c5.27.8 7.78 3.51 7.18 7.46-.37 2.43-1.78 4.23-4.16 4.83 2.52 1.28 3.53 3.36 3.12 6.08-.67 4.4-4.56 6.97-9.56 6.21l-12.2-1.86 3.73-24.53 11.89 1.81zm-9.52 18.63l6.6 1c2.04.31 3.43-.69 3.7-2.43.27-1.78-.81-3.05-2.83-3.35l-6.59-1-.88 5.78zm1.5-9.85l6.36.97c1.86.28 3.09-.51 3.32-2.02.24-1.59-.82-2.57-2.47-2.83l-6.47-.98-.74 4.86z"/><use xlink:href="#F" x="-474.28" y="-72.14"/><path d="M423.18 82.49l-.67 4.38 11.89 1.81-.76 5.03-11.89-1.81-.77 5.06 12.93 1.97-.76 5.03-18.29-2.78 3.73-24.53 18.29 2.78-.76 5.03-12.93-1.97zm26.23-1.16l7.01 1.07 6.09 26.03-5.78-.88-1.23-5.49-11.03-1.68-2.81 4.88-5.78-.88 13.53-23.04zm4.94 15.4l-2.2-9.84-5.02 8.74 7.22 1.1zm27.3-.6l7.52 16.35-6.47-.98-5.32-12.17-4.46 3.17-1.12 7.34-5.35-.81 3.73-24.53 5.35.81-1.58 10.42 11.57-8.9 7.27 1.11-11.15 8.19z"/><use xlink:href="#H" x="-474.27" y="-72.14"/><path d="M544.33 95.77l-3.73 24.53-5.23-.8 2.64-17.38-7.77 14.85-6.12-.93-3.02-16.49-2.64 17.38-5.22-.79 3.73-24.53 7.82 1.19 3.27 17.95 8.44-16.17 7.83 1.19zm33.54 5.1l-3.73 24.53-5.23-.8 2.64-17.38-7.77 14.85-6.12-.93-3.02-16.49-2.64 17.38-5.22-.79 3.73-24.53 7.82 1.19 3.27 17.95 8.44-16.17 7.83 1.19z"/><use xlink:href="#H" x="-395.67" y="-60.18"/><use xlink:href="#I" x="-474.27" y="-72.14"/><path d="M628.41,113.71l-.67,4.38,11.89,1.81-.76,5.03-11.89-1.81-.77,5.06,12.93,1.97-.76,5.03-18.29-2.78,3.73-24.53,18.29,2.78-.76,5.03-12.93-1.97Z"/><use xlink:href="#I" x="-422.78" y="-64.3"/><use xlink:href="#D" x="-141.2" y="-21.48"/></g><circle cx="726.81" cy="135.61" r="3.68"/><use xlink:href="#J"/><use xlink:href="#K"/><use xlink:href="#L"/><circle cx="1211.72" cy="209.37" r="3.68"/><use xlink:href="#J" x="484.92" y="73.76"/><use xlink:href="#K" x="484.91" y="73.76"/><use xlink:href="#L" x="484.92" y="73.76"/><circle cx="1706.9" cy="284.69" r="3.68"/><use xlink:href="#J" x="980.09" y="149.08"/><use xlink:href="#K" x="980.09" y="149.08"/><use xlink:href="#L" x="980.1" y="149.08"/><defs ><path id="B" d="M782.53 144.55c-1.21 7.94-6.93 12.07-14.71 10.89-7.8-1.19-12.02-6.83-10.81-14.77s6.91-12.08 14.71-10.89c7.78 1.18 12.02 6.83 10.81 14.77zm-20.1-3.06c-.79 5.17 1.67 8.36 6.13 9.04 4.45.68 7.74-1.64 8.53-6.81s-1.67-8.36-6.12-9.03c-4.46-.68-7.76 1.64-8.54 6.8z"/><path id="C" d="M810.51 136.26l-2.4 15.81c-.85 5.59-5.45 8.67-12.15 7.66-6.71-1.02-10.18-5.33-9.33-10.92l2.4-15.81 5.35.81-2.35 15.48c-.45 2.96 1.23 5 4.67 5.52s5.65-.93 6.1-3.88l2.35-15.48 5.35.81z"/><path id="D" d="M813.98 136.79l23.32 3.55-.76 5.03-8.96-1.36-2.97 19.5-5.37-.82 2.97-19.5-8.98-1.37.76-5.03z"/><path id="E" d="M852.84 142.7c5.27.8 7.78 3.51 7.18 7.46-.37 2.43-1.78 4.23-4.17 4.83 2.52 1.28 3.53 3.36 3.12 6.08-.67 4.4-4.56 6.97-9.56 6.21l-12.2-1.85 3.73-24.53 11.89 1.81zm-9.52 18.63l6.6 1c2.04.31 3.43-.69 3.7-2.43.27-1.78-.81-3.05-2.83-3.35l-6.59-1-.88 5.78zm1.5-9.85l6.36.97c1.86.28 3.09-.51 3.32-2.02.24-1.59-.82-2.57-2.48-2.83l-6.47-.98-.74 4.86z"/><path id="F" d="M879.62 146.77c5.22.79 7.55 4.82 6.89 9.15-.53 3.46-2.86 6.25-6.2 7.07l3.46 9.5-6.12-.93-3.16-8.79-5.08-.77-1.24 8.13-5.35-.81 3.73-24.53 13.09 1.99zm-9.48 10.32l6.66 1.01c2.24.34 3.98-.76 4.29-2.78.3-1.98-1-3.34-3.03-3.65l-6.93-1.05-.98 6.47z"/><path id="G" d="M955.93 168.27l7.52 16.35-6.47-.98-5.33-12.17-4.46 3.17-1.12 7.34-5.35-.81 3.73-24.53 5.35.81-1.58 10.42 11.57-8.9 7.27 1.11-11.15 8.19z"/><path id="H" d="M985.07 162.81l-3.73 24.53-5.35-.81 3.73-24.53 5.35.81z"/><path id="I" d="M1091.92 179.06l-3.73 24.53-6-.91-8.27-17.78-2.46 16.15-5.35-.81 3.73-24.53 6 .91 8.25 17.92 2.48-16.29 5.35.81z"/><path id="J" d="M720.07 134.14l-4.77-1.38c-.72-.11-1.38.42-1.42 1.14-.27 4.2 1.25 8.45 4.44 11.53.52.51 1.37.46 1.82-.11l2.53-4.37c.29-.35.28-.87-.04-1.2-1.25-1.28-1.86-2.99-1.79-4.69.02-.46-.32-.85-.77-.93z"/><path id="K" d="M731.34 130.51l3.52-3.5a1.23 1.23 0 0 0-.31-1.8c-3.54-2.27-7.99-3-12.24-1.71-.7.21-1.06.97-.79 1.65l2.59 4.33c.17.42.63.67 1.07.55 1.73-.47 3.52-.17 4.97.71.39.24.9.13 1.19-.23z"/><path id="L" d="M729.1 141.85l1.3 4.79a1.24 1.24 0 0 0 1.71.63 14.71 14.71 0 0 0 7.55-9.79c.16-.71-.32-1.41-1.04-1.5l-5.04.11c-.45-.06-.89.21-1.01.66-.45 1.73-1.59 3.14-3.08 3.97-.4.22-.56.72-.39 1.14z"/></defs></svg>